<svg width="224" height="174" viewBox="0 0 224 174" fill="none" xmlns="http://www.w3.org/2000/svg">
<g clip-path="url(#clip0_10553_1797)">
<path d="M37.6943 48.1304L107.833 21.7174V31.6957L80.7499 41.7947V98.0217L66.861 104.478V46.9738L37.6943 58.1087V48.1304Z" fill="#EEEFE9"/>
<path d="M66.861 46.9738L37.6943 58.1087V48.1304L107.833 21.7174V31.6957L80.7499 41.7947M66.861 46.9738V104.478L80.7499 98.0217V41.7947M66.861 46.9738L80.7499 41.7947" stroke="#EEEFE9"/>
<path d="M112 79.2391V25.8261L124.5 29.7762L124.5 84.5217L117.556 81.587L112 79.2391Z" fill="#EEEFE9" stroke="#EEEFE9"/>
<path d="M109.917 15.2609L37.6943 43.4348V28.1739L109.917 1.17391L185.611 26.413V39.913L109.917 15.2609Z" fill="#EEEFE9" stroke="#EEEFE9"/>
<path d="M184.917 45.3616V56.3478V106.826L172.54 100.735V52.2391L111.957 32.3595L112 21.7174L184.917 45.3616Z" fill="#EEEFE9"/>
<path d="M184.917 56.3478V45.3616L112 21.7174L111.957 32.3595L172.54 52.2391M184.917 56.3478L172.54 52.2391M184.917 56.3478V106.826L172.54 100.614V52.2391" stroke="#EEEFE9"/>
<path d="M143.573 55.9372L138.976 54.2422V58.3587L143.573 59.8117V55.9372Z" fill="#EEEFE9"/>
<path d="M143.452 60.5381L138.855 59.0852V63.2018L143.452 64.8969V60.5381Z" fill="#EEEFE9"/>
<path d="M149.5 57.9955L144.903 56.4215V60.296L149.5 61.87V57.9955Z" fill="#EEEFE9"/>
<path d="M149.5 62.4753L144.903 61.0224V65.139L149.5 66.4709V62.4753Z" fill="#EEEFE9"/>
</g>
<path d="M14.912 154.512L14.96 132.336C14.96 131.136 14.624 130.8 13.472 130.8H11.504C10.544 130.848 9.824 130.896 9.296 131.04C7.712 131.328 5.936 132.48 4.496 134.016L3.008 135.696C2.528 136.224 2.048 136.512 1.616 136.512C0.992 136.512 0.464 135.984 0.464 135.408C0.464 135.168 0.56 134.832 0.752 134.448L4.64 127.152C4.976 126.576 5.408 126.288 5.984 126.288C6.368 126.288 6.656 126.336 6.848 126.528L7.376 127.008C7.76 127.392 8.192 127.488 9.152 127.488H29.792C30.8 127.488 30.992 127.44 31.616 126.912C32.192 126.384 32.432 126.288 32.816 126.288C33.488 126.288 33.584 126.336 34.112 127.392L37.616 134.64C37.76 134.928 37.808 135.168 37.808 135.408C37.808 135.984 37.28 136.512 36.56 136.512C36.128 136.512 35.696 136.224 35.168 135.6C34.592 134.88 34.16 134.352 33.92 134.064C33.248 133.296 32.624 132.672 32 132.192C30.704 131.328 28.832 130.752 27.2 130.752L24.896 130.8C23.696 130.8 23.312 131.184 23.312 132.192V155.616C23.312 157.392 23.312 157.584 23.552 158.256C23.744 158.976 24.176 159.312 25.04 159.456C26.192 159.6 26.48 159.888 26.48 160.752C26.48 161.568 25.856 162 24.752 162H13.328C12.176 162 11.6 161.568 11.6 160.704C11.6 159.936 11.984 159.6 13.04 159.456C14.624 159.264 14.912 158.592 14.912 155.616V154.512ZM38.2584 152.592C37.8264 152.688 37.6824 152.832 37.6824 153.024C37.6824 153.312 37.8744 153.792 38.1144 154.368C39.6984 157.392 42.2424 159.024 45.2184 159.024C47.5224 159.024 49.5864 158.16 51.6504 156.192C52.1304 155.76 52.4664 155.616 52.7064 155.616C53.2824 155.616 53.6664 156.048 53.6664 156.624C53.6664 156.864 53.4744 157.344 53.2824 157.632C51.0744 160.848 46.9944 162.72 42.2904 162.72C34.5624 162.72 29.1384 157.776 29.1384 150.72C29.1384 143.808 34.4664 138.384 41.4264 138.384C45.3144 138.384 48.6744 140.016 50.8344 142.944C51.4584 143.808 51.9864 144.72 52.4664 145.728C52.8024 146.496 52.9464 146.928 52.9464 147.264C52.9464 147.504 52.8024 147.744 52.5144 147.84L38.2584 152.592ZM37.1544 150C37.2504 150 37.3944 149.952 37.5384 149.904L45.1224 147.408C45.5064 147.264 45.6984 147.12 45.6984 146.88C45.6984 146.688 45.5064 146.016 45.2184 145.248C44.9304 144.48 44.4504 143.712 43.8744 143.04C42.9624 141.984 41.6664 141.312 40.3704 141.312C37.9224 141.312 36.2904 143.472 36.2904 146.688C36.2904 148.464 36.7224 150 37.1544 150ZM63.7872 139.344V142.8C63.7872 142.944 63.8832 143.088 63.9312 143.088C64.0272 143.088 64.1712 142.848 64.4592 142.32C65.6112 140.112 68.2032 138.432 70.6032 138.432C72.2352 138.432 73.7713 139.056 73.7713 139.68C73.7713 139.872 73.7232 139.968 73.2912 140.928C73.0993 141.552 72.8593 142.224 72.5712 142.992C72.0913 144.336 71.8512 145.152 71.8032 145.44C71.6593 146.4 71.3712 146.688 70.7472 146.688C70.1712 146.688 70.0272 146.544 69.8833 145.728C69.5473 144.336 68.7312 143.616 67.4832 143.616C65.3712 143.616 63.7872 145.632 63.7872 148.464V156.432C63.7872 158.832 64.1232 159.312 66.0912 159.792C66.9552 159.984 67.2912 160.272 67.2912 160.944C67.2912 161.568 66.8112 162 65.9953 162H54.1872C53.3712 162 52.8912 161.568 52.8912 160.896C52.8912 160.272 53.2272 159.984 54.0912 159.792C55.0992 159.552 55.6752 159.216 55.9632 158.64C56.1072 158.256 56.2032 157.776 56.2512 156.432V155.568V146.688C56.2512 145.248 55.8192 144.576 54.7632 144.24C54.5232 144.192 54.3792 144.144 54.3312 144.096C53.8512 143.952 53.5632 143.52 53.5632 143.04C53.5632 142.656 53.8512 142.272 54.1872 142.128L62.7312 138.672C62.8752 138.576 62.9712 138.528 63.1152 138.528C63.5472 138.528 63.6912 138.768 63.7872 139.344ZM81.7535 139.344V142.8C81.7535 142.944 81.8495 143.088 81.8975 143.088C81.9935 143.088 82.1375 142.848 82.4255 142.32C83.5775 140.112 86.1695 138.432 88.5695 138.432C90.2015 138.432 91.7375 139.056 91.7375 139.68C91.7375 139.872 91.6895 139.968 91.2575 140.928C91.0655 141.552 90.8255 142.224 90.5375 142.992C90.0575 144.336 89.8175 145.152 89.7695 145.44C89.6255 146.4 89.3375 146.688 88.7135 146.688C88.1375 146.688 87.9935 146.544 87.8495 145.728C87.5135 144.336 86.6975 143.616 85.4495 143.616C83.3375 143.616 81.7535 145.632 81.7535 148.464V156.432C81.7535 158.832 82.0895 159.312 84.0575 159.792C84.9215 159.984 85.2575 160.272 85.2575 160.944C85.2575 161.568 84.7775 162 83.9615 162H72.1535C71.3375 162 70.8575 161.568 70.8575 160.896C70.8575 160.272 71.1935 159.984 72.0575 159.792C73.0655 159.552 73.6415 159.216 73.9295 158.64C74.0735 158.256 74.1695 157.776 74.2175 156.432V155.568V146.688C74.2175 145.248 73.7855 144.576 72.7295 144.24C72.4895 144.192 72.3455 144.144 72.2975 144.096C71.8175 143.952 71.5295 143.52 71.5295 143.04C71.5295 142.656 71.8175 142.272 72.1535 142.128L80.6975 138.672C80.8415 138.576 80.9375 138.528 81.0815 138.528C81.5135 138.528 81.6575 138.768 81.7535 139.344ZM103.761 148.56L103.185 145.776C102.657 143.04 101.217 141.744 98.8647 141.744C97.2807 141.744 95.7927 142.368 94.5927 143.472L93.7767 144.24C93.3447 144.624 92.9127 144.816 92.6247 144.816C92.0487 144.816 91.5687 144.432 91.5687 143.904C91.5687 143.184 92.3367 142.176 93.5847 141.12C95.8407 139.344 98.4327 138.432 101.505 138.432C106.497 138.432 109.473 140.688 110.529 145.008L112.881 155.136C113.409 157.584 114.273 158.88 115.281 158.88C115.761 158.88 116.193 158.688 116.337 158.352C116.481 158.16 116.481 158.16 116.529 158.016C116.577 157.968 116.721 157.92 116.865 157.92C117.201 157.92 117.393 158.208 117.393 158.832C117.393 160.992 115.089 162.624 111.921 162.624C109.857 162.624 108.417 162.048 107.265 160.752C106.785 160.224 106.737 160.176 106.641 160.176C106.593 160.176 106.497 160.224 106.353 160.272C106.305 160.32 106.113 160.512 105.729 160.752C104.193 161.856 101.457 162.624 98.9607 162.624C93.4407 162.624 89.3607 159.408 89.3607 155.04C89.3607 150.624 93.3927 147.696 99.2967 147.696C101.121 147.696 101.841 147.84 103.761 148.56ZM105.441 155.712L104.433 151.344C103.329 150.432 102.321 150.096 101.073 150.096C98.5287 150.096 96.6087 152.016 96.6087 154.608C96.6087 157.392 98.7207 159.552 101.553 159.552C103.761 159.552 105.537 158.304 105.537 156.72C105.537 156.384 105.489 156.048 105.441 155.712ZM134.776 156.432L133.288 147.936C132.904 145.248 131.752 144 129.784 144C127.336 144 125.608 146.112 125.608 149.04V156.432C125.608 157.92 125.608 158.208 125.848 158.64C126.04 159.168 126.616 159.552 127.48 159.792C128.392 160.032 128.68 160.272 128.68 160.944C128.68 161.616 128.152 162 127.336 162H116.392C115.576 162 115.096 161.616 115.096 160.896C115.096 160.272 115.336 160.032 116.296 159.792C117.064 159.552 117.64 159.216 117.832 158.688C118.024 158.256 118.072 157.728 118.072 156.432V146.688C118.072 145.248 117.64 144.576 116.584 144.24C116.344 144.192 116.2 144.144 116.152 144.096C115.72 143.952 115.384 143.52 115.384 143.04C115.384 142.656 115.672 142.272 116.008 142.128L124.552 138.672C124.696 138.576 124.84 138.528 124.936 138.528C125.368 138.528 125.512 138.768 125.608 139.344V142.8C125.608 142.944 125.704 143.088 125.752 143.088C125.8 143.088 125.944 143.04 126.04 142.896L127.384 141.408C128.968 139.632 131.032 138.72 133.432 138.72C137.272 138.72 139.432 140.784 140.344 145.392L142.6 156.432C143.08 158.784 143.512 159.408 145.096 159.84C146.008 160.032 146.296 160.272 146.296 160.944C146.296 161.616 145.768 162 145 162H133.96C133.096 162 132.616 161.616 132.616 160.896C132.616 160.512 132.952 160.08 133.384 159.936C133.432 159.936 133.576 159.888 133.816 159.792C134.68 159.552 135.064 159.024 135.064 158.256C135.064 158.112 135.016 158.016 135.016 157.92L134.776 156.432ZM144.514 150.48C144.514 143.424 150.13 138.432 158.098 138.432C166.258 138.432 172.498 144.096 172.498 151.488C172.498 158.352 167.074 162.672 158.434 162.672C150.178 162.672 144.514 157.728 144.514 150.48ZM156.514 140.976C154.066 140.976 152.338 142.56 151.954 145.104C151.81 145.536 151.762 145.968 151.762 146.4C151.762 153.504 155.65 159.648 160.114 159.648C163.138 159.648 164.914 157.584 164.914 154.128C164.914 149.952 162.754 144.72 160.066 142.368C159.106 141.504 157.762 140.976 156.514 140.976ZM173.516 144.816C173.036 143.52 172.748 143.04 172.412 142.608C171.98 142.08 171.26 141.696 170.348 141.456C169.484 141.264 169.196 140.976 169.196 140.304C169.196 139.632 169.676 139.248 170.54 139.248H182.06C182.876 139.248 183.404 139.632 183.404 140.304C183.404 140.784 183.068 141.12 182.684 141.312C182.636 141.36 182.444 141.408 182.204 141.456C181.58 141.648 181.196 142.08 181.196 142.56C181.196 142.944 181.388 143.52 181.868 144.768L185.516 153.552C185.564 153.792 185.756 153.936 185.948 153.936C186.092 153.936 186.236 153.744 186.332 153.504L189.692 144.768C190.076 143.616 190.316 143.04 190.316 142.656C190.316 142.08 189.884 141.648 189.164 141.456C188.06 141.12 187.964 141.024 187.964 140.304C187.964 139.632 188.444 139.2 189.26 139.2H196.844C197.66 139.2 198.14 139.632 198.14 140.304C198.14 140.976 197.9 141.168 196.94 141.456C196.22 141.648 195.596 142.032 195.164 142.608C194.876 142.992 194.588 143.472 194.06 144.768L187.436 161.376C187.244 161.904 187.148 162 186.572 162H181.724C181.1 162 180.908 161.904 180.716 161.376L173.516 144.816ZM209.61 148.56L209.034 145.776C208.506 143.04 207.066 141.744 204.714 141.744C203.13 141.744 201.642 142.368 200.442 143.472L199.626 144.24C199.194 144.624 198.762 144.816 198.474 144.816C197.898 144.816 197.418 144.432 197.418 143.904C197.418 143.184 198.186 142.176 199.434 141.12C201.69 139.344 204.282 138.432 207.354 138.432C212.346 138.432 215.322 140.688 216.378 145.008L218.73 155.136C219.258 157.584 220.122 158.88 221.13 158.88C221.61 158.88 222.042 158.688 222.186 158.352C222.33 158.16 222.33 158.16 222.378 158.016C222.426 157.968 222.57 157.92 222.714 157.92C223.05 157.92 223.242 158.208 223.242 158.832C223.242 160.992 220.938 162.624 217.77 162.624C215.706 162.624 214.266 162.048 213.114 160.752C212.634 160.224 212.586 160.176 212.49 160.176C212.442 160.176 212.346 160.224 212.202 160.272C212.154 160.32 211.962 160.512 211.578 160.752C210.042 161.856 207.306 162.624 204.81 162.624C199.29 162.624 195.21 159.408 195.21 155.04C195.21 150.624 199.242 147.696 205.146 147.696C206.97 147.696 207.69 147.84 209.61 148.56ZM211.29 155.712L210.282 151.344C209.178 150.432 208.17 150.096 206.922 150.096C204.378 150.096 202.458 152.016 202.458 154.608C202.458 157.392 204.57 159.552 207.402 159.552C209.61 159.552 211.386 158.304 211.386 156.72C211.386 156.384 211.338 156.048 211.29 155.712Z" fill="#EEEFE9"/>
<defs>
<clipPath id="clip0_10553_1797">
<rect width="150" height="108" fill="white" transform="translate(37)"/>
</clipPath>
</defs>
</svg>
