<?xml version="1.0" encoding="UTF-8"?>
<svg id="Layer_1" xmlns="http://www.w3.org/2000/svg" version="1.1" viewBox="0 0 468 140">
  <!-- Generator: Adobe Illustrator 29.7.1, SVG Export Plug-In . SVG Version: 2.1.1 Build 8)  -->
  <defs>
    <style>
      .st0, .st1 {
        fill: none;
      }

      .st0, .st2 {
        stroke: #000;
      }
    </style>
  </defs>
  <rect class="st1" x="37" y="16" width="150" height="108"/>
  <path d="M37.69,64.13l70.14-26.41v9.98l-27.08,10.1v56.23l-13.89,6.46v-57.5l-29.17,11.13v-9.98Z"/>
  <path class="st0" d="M66.86,62.97l-29.17,11.13v-9.98l70.14-26.41v9.98l-27.08,10.1M66.86,62.97v57.5l13.89-6.46v-56.23M66.86,62.97l13.89-5.18"/>
  <path class="st2" d="M112,95.24v-53.41l12.5,3.95v54.75l-6.94-2.94-5.56-2.35Z"/>
  <path class="st2" d="M109.92,31.26l-72.22,28.17v-15.26l72.22-27,75.69,25.24v13.5l-75.69-24.65Z"/>
  <path d="M184.92,61.36v61.46l-12.38-6.09v-48.5l-60.58-19.88.04-10.64,72.92,23.64Z"/>
  <path class="st0" d="M184.92,72.35v-10.99l-72.92-23.64-.04,10.64,60.58,19.88M184.92,72.35l-12.38-4.11M184.92,72.35v50.48l-12.38-6.21v-48.37"/>
  <path d="M143.57,71.94l-4.6-1.7v4.12l4.6,1.45v-3.87Z"/>
  <path d="M143.45,76.54l-4.6-1.45v4.12l4.6,1.7v-4.36Z"/>
  <path d="M149.5,74l-4.6-1.57v3.87l4.6,1.57v-3.87Z"/>
  <path d="M149.5,78.48l-4.6-1.45v4.12l4.6,1.33v-4Z"/>
  <path d="M223.91,79.51l.05-22.18c0-1.2-.34-1.54-1.49-1.54h-1.97c-.96.05-1.68.1-2.21.24-1.58.29-3.36,1.44-4.8,2.98l-1.49,1.68c-.48.53-.96.82-1.39.82-.62,0-1.15-.53-1.15-1.1,0-.24.1-.58.29-.96l3.89-7.3c.34-.58.77-.86,1.34-.86.38,0,.67.05.86.24l.53.48c.38.38.82.48,1.78.48h20.64c1.01,0,1.2-.05,1.82-.58.58-.53.82-.62,1.2-.62.67,0,.77.05,1.3,1.1l3.5,7.25c.14.29.19.53.19.77,0,.58-.53,1.1-1.25,1.1-.43,0-.86-.29-1.39-.91-.58-.72-1.01-1.25-1.25-1.54-.67-.77-1.3-1.39-1.92-1.87-1.3-.86-3.17-1.44-4.8-1.44l-2.3.05c-1.2,0-1.58.38-1.58,1.39v23.42c0,1.78,0,1.97.24,2.64.19.72.62,1.06,1.49,1.2,1.15.14,1.44.43,1.44,1.3,0,.82-.62,1.25-1.73,1.25h-11.42c-1.15,0-1.73-.43-1.73-1.3,0-.77.38-1.1,1.44-1.25,1.58-.19,1.87-.86,1.87-3.84v-1.1ZM247.26,77.59c-.43.1-.58.24-.58.43,0,.29.19.77.43,1.34,1.58,3.02,4.13,4.66,7.1,4.66,2.3,0,4.37-.86,6.43-2.83.48-.43.82-.58,1.06-.58.58,0,.96.43.96,1.01,0,.24-.19.72-.38,1.01-2.21,3.22-6.29,5.09-10.99,5.09-7.73,0-13.15-4.94-13.15-12s5.33-12.34,12.29-12.34c3.89,0,7.25,1.63,9.41,4.56.62.86,1.15,1.78,1.63,2.78.34.77.48,1.2.48,1.54,0,.24-.14.48-.43.58l-14.26,4.75ZM246.15,75c.1,0,.24-.05.38-.1l7.58-2.5c.38-.14.58-.29.58-.53,0-.19-.19-.86-.48-1.63-.29-.77-.77-1.54-1.34-2.21-.91-1.06-2.21-1.73-3.5-1.73-2.45,0-4.08,2.16-4.08,5.38,0,1.78.43,3.31.86,3.31ZM272.79,64.34v3.46c0,.14.1.29.14.29.1,0,.24-.24.53-.77,1.15-2.21,3.74-3.89,6.14-3.89,1.63,0,3.17.62,3.17,1.25,0,.19-.05.29-.48,1.25-.19.62-.43,1.3-.72,2.06-.48,1.34-.72,2.16-.77,2.45-.14.96-.43,1.25-1.06,1.25-.58,0-.72-.14-.86-.96-.34-1.39-1.15-2.11-2.4-2.11-2.11,0-3.7,2.02-3.7,4.85v7.97c0,2.4.34,2.88,2.3,3.36.86.19,1.2.48,1.2,1.15,0,.62-.48,1.06-1.3,1.06h-11.81c-.82,0-1.3-.43-1.3-1.1,0-.62.34-.91,1.2-1.1,1.01-.24,1.58-.58,1.87-1.15.14-.38.24-.86.29-2.21v-9.74c0-1.44-.43-2.11-1.49-2.45-.24-.05-.38-.1-.43-.14-.48-.14-.77-.58-.77-1.06,0-.38.29-.77.62-.91l8.54-3.46c.14-.1.24-.14.38-.14.43,0,.58.24.67.82ZM290.75,64.34v3.46c0,.14.1.29.14.29.1,0,.24-.24.53-.77,1.15-2.21,3.74-3.89,6.14-3.89,1.63,0,3.17.62,3.17,1.25,0,.19-.05.29-.48,1.25-.19.62-.43,1.3-.72,2.06-.48,1.34-.72,2.16-.77,2.45-.14.96-.43,1.25-1.06,1.25-.58,0-.72-.14-.86-.96-.34-1.39-1.15-2.11-2.4-2.11-2.11,0-3.7,2.02-3.7,4.85v7.97c0,2.4.34,2.88,2.3,3.36.86.19,1.2.48,1.2,1.15,0,.62-.48,1.06-1.3,1.06h-11.81c-.82,0-1.3-.43-1.3-1.1,0-.62.34-.91,1.2-1.1,1.01-.24,1.58-.58,1.87-1.15.14-.38.24-.86.29-2.21v-9.74c0-1.44-.43-2.11-1.49-2.45-.24-.05-.38-.1-.43-.14-.48-.14-.77-.58-.77-1.06,0-.38.29-.77.62-.91l8.54-3.46c.14-.1.24-.14.38-.14.43,0,.58.24.67.82ZM312.76,73.56l-.58-2.78c-.53-2.74-1.97-4.03-4.32-4.03-1.58,0-3.07.62-4.27,1.73l-.82.77c-.43.38-.86.58-1.15.58-.58,0-1.06-.38-1.06-.91,0-.72.77-1.73,2.02-2.78,2.26-1.78,4.85-2.69,7.92-2.69,4.99,0,7.97,2.26,9.02,6.58l2.35,10.13c.53,2.45,1.39,3.74,2.4,3.74.48,0,.91-.19,1.06-.53q.14-.19.19-.34s.19-.1.34-.1c.34,0,.53.29.53.91,0,2.16-2.3,3.79-5.47,3.79-2.06,0-3.5-.58-4.66-1.87-.48-.53-.53-.58-.62-.58-.05,0-.14.05-.29.1-.05.05-.24.24-.62.48-1.54,1.1-4.27,1.87-6.77,1.87-5.52,0-9.6-3.22-9.6-7.58s4.03-7.34,9.94-7.34c1.82,0,2.54.14,4.46.86ZM314.44,80.71l-1.01-4.37c-1.1-.91-2.11-1.25-3.36-1.25-2.54,0-4.46,1.92-4.46,4.51,0,2.78,2.11,4.94,4.94,4.94,2.21,0,3.98-1.25,3.98-2.83,0-.34-.05-.67-.1-1.01ZM343.78,81.43l-1.49-8.5c-.38-2.69-1.54-3.94-3.5-3.94-2.45,0-4.18,2.11-4.18,5.04v7.39c0,1.49,0,1.78.24,2.21.19.53.77.91,1.63,1.15.91.24,1.2.48,1.2,1.15s-.53,1.06-1.34,1.06h-10.94c-.82,0-1.3-.38-1.3-1.1,0-.62.24-.86,1.2-1.1.77-.24,1.34-.58,1.54-1.1.19-.43.24-.96.24-2.26v-9.74c0-1.44-.43-2.11-1.49-2.45-.24-.05-.38-.1-.43-.14-.43-.14-.77-.58-.77-1.06,0-.38.29-.77.62-.91l8.54-3.46c.14-.1.29-.14.38-.14.43,0,.58.24.67.82v3.46c0,.14.1.29.14.29s.19-.05.29-.19l1.34-1.49c1.58-1.78,3.65-2.69,6.05-2.69,3.84,0,6,2.06,6.91,6.67l2.26,11.04c.48,2.35.91,2.98,2.5,3.41.91.19,1.2.43,1.2,1.1s-.53,1.06-1.3,1.06h-11.04c-.86,0-1.34-.38-1.34-1.1,0-.38.34-.82.77-.96.05,0,.19-.05.43-.14.86-.24,1.25-.77,1.25-1.54,0-.14-.05-.24-.05-.34l-.24-1.49ZM353.51,75.48c0-7.06,5.62-12.05,13.58-12.05s14.4,5.66,14.4,13.06c0,6.86-5.42,11.18-14.06,11.18s-13.92-4.94-13.92-12.19ZM365.51,65.98c-2.45,0-4.18,1.58-4.56,4.13-.14.43-.19.86-.19,1.3,0,7.1,3.89,13.25,8.35,13.25,3.02,0,4.8-2.06,4.8-5.52,0-4.18-2.16-9.41-4.85-11.76-.96-.86-2.3-1.39-3.55-1.39ZM382.52,69.82c-.48-1.3-.77-1.78-1.1-2.21-.43-.53-1.15-.91-2.06-1.15-.86-.19-1.15-.48-1.15-1.15s.48-1.06,1.34-1.06h11.52c.82,0,1.34.38,1.34,1.06,0,.48-.34.82-.72,1.01-.05.05-.24.1-.48.14-.62.19-1.01.62-1.01,1.1,0,.38.19.96.67,2.21l3.65,8.78c.05.24.24.38.43.38.14,0,.29-.19.38-.43l3.36-8.74c.38-1.15.62-1.73.62-2.11,0-.58-.43-1.01-1.15-1.2-1.1-.34-1.2-.43-1.2-1.15,0-.67.48-1.1,1.3-1.1h7.58c.82,0,1.3.43,1.3,1.1s-.24.86-1.2,1.15c-.72.19-1.34.58-1.78,1.15-.29.38-.58.86-1.1,2.16l-6.62,16.61c-.19.53-.29.62-.86.62h-4.85c-.62,0-.82-.1-1.01-.62l-7.2-16.56ZM418.61,73.56l-.58-2.78c-.53-2.74-1.97-4.03-4.32-4.03-1.58,0-3.07.62-4.27,1.73l-.82.77c-.43.38-.86.58-1.15.58-.58,0-1.06-.38-1.06-.91,0-.72.77-1.73,2.02-2.78,2.26-1.78,4.85-2.69,7.92-2.69,4.99,0,7.97,2.26,9.02,6.58l2.35,10.13c.53,2.45,1.39,3.74,2.4,3.74.48,0,.91-.19,1.06-.53q.14-.19.19-.34s.19-.1.34-.1c.34,0,.53.29.53.91,0,2.16-2.3,3.79-5.47,3.79-2.06,0-3.5-.58-4.66-1.87-.48-.53-.53-.58-.62-.58-.05,0-.14.05-.29.1-.05.05-.24.24-.62.48-1.54,1.1-4.27,1.87-6.77,1.87-5.52,0-9.6-3.22-9.6-7.58s4.03-7.34,9.94-7.34c1.82,0,2.54.14,4.46.86ZM420.29,80.71l-1.01-4.37c-1.1-.91-2.11-1.25-3.36-1.25-2.54,0-4.46,1.92-4.46,4.51,0,2.78,2.11,4.94,4.94,4.94,2.21,0,3.98-1.25,3.98-2.83,0-.34-.05-.67-.1-1.01Z"/>
</svg>