<?xml version="1.0" encoding="UTF-8"?>
<svg id="Layer_1" xmlns="http://www.w3.org/2000/svg" version="1.1" viewBox="0 0 200 140">
  <path d="M37.69,64.13l70.14-26.41v9.98l-27.08,10.1v56.23l-13.89,6.46v-57.5l-29.17,11.13v-9.98Z" fill="#fff"/>
  <path d="M66.86,62.97l-29.17,11.13v-9.98l70.14-26.41v9.98l-27.08,10.1M66.86,62.97v57.5l13.89-6.46v-56.23M66.86,62.97l13.89-5.18" fill="#fff" stroke="#fff" stroke-width="1"/>
  <path d="M112,95.24v-53.41l12.5,3.95v54.75l-6.94-2.94-5.56-2.35Z" fill="#fff" stroke="#fff" stroke-width="1"/>
  <path d="M109.92,31.26l-72.22,28.17v-15.26l72.22-27,75.69,25.24v13.5l-75.69-24.65Z" fill="#fff" stroke="#fff" stroke-width="1"/>
  <path d="M184.92,61.36v61.46l-12.38-6.09v-48.5l-60.58-19.88.04-10.64,72.92,23.64Z" fill="#fff"/>
  <path d="M184.92,72.35v-10.99l-72.92-23.64-.04,10.64,60.58,19.88M184.92,72.35l-12.38-4.11M184.92,72.35v50.48l-12.38-6.21v-48.37" fill="#fff" stroke="#fff" stroke-width="1"/>
  <path d="M143.57,71.94l-4.6-1.7v4.12l4.6,1.45v-3.87Z" fill="#fff"/>
  <path d="M143.45,76.54l-4.6-1.45v4.12l4.6,1.7v-4.36Z" fill="#fff"/>
  <path d="M149.5,74l-4.6-1.57v3.87l4.6,1.57v-3.87Z" fill="#fff"/>
  <path d="M149.5,78.48l-4.6-1.45v4.12l4.6,1.33v-4Z" fill="#fff"/>
</svg>

